<svg width="51" height="50" viewBox="0 0 51 50" fill="none" xmlns="http://www.w3.org/2000/svg">
<path d="M18.0216 38.9514L13.0458 43.3668V1.91974C13.0458 1.41059 12.8169 0.922298 12.4094 0.562277C12.0019 0.202257 11.4493 0 10.873 0C10.2967 0 9.74406 0.202257 9.33658 0.562277C8.9291 0.922298 8.70017 1.41059 8.70017 1.91974V43.3668L3.72441 38.9514C3.31526 38.5899 2.76034 38.3869 2.18171 38.3869C1.60309 38.3869 1.04816 38.5899 0.639009 38.9514C0.229858 39.3129 0 39.8032 0 40.3144C0 40.8257 0.229858 41.316 0.639009 41.6775L9.33029 49.3564C9.53228 49.5363 9.7726 49.6792 10.0374 49.7766C10.3022 49.8741 10.5862 49.9243 10.873 49.9243C11.1598 49.9243 11.4438 49.8741 11.7086 49.7766C11.9734 49.6792 12.2137 49.5363 12.4157 49.3564L21.107 41.6775C21.3096 41.4985 21.4703 41.286 21.5799 41.0521C21.6896 40.8182 21.746 40.5676 21.746 40.3144C21.746 40.0613 21.6896 39.8107 21.5799 39.5768C21.4703 39.3429 21.3096 39.1304 21.107 38.9514C20.9044 38.7724 20.6639 38.6305 20.3992 38.5336C20.1345 38.4367 19.8508 38.3869 19.5643 38.3869C19.2778 38.3869 18.9941 38.4367 18.7294 38.5336C18.4647 38.6305 18.2242 38.7724 18.0216 38.9514Z" fill="white"/>
<path d="M47.2491 45.7522H39.0808L49.1462 31.5465C49.6083 30.8942 49.6494 30.0583 49.2528 29.3686C48.8563 28.68 48.0866 28.2507 47.2491 28.2507H34.8489C33.5927 28.2507 32.5742 29.2017 32.5742 30.3746C32.5742 31.5475 33.5927 32.4985 34.8489 32.4985H43.0172L32.9518 46.7042C32.4897 47.3565 32.4486 48.1924 32.8452 48.882C33.2417 49.5707 34.0114 50 34.8489 50H47.2491C48.5053 50 49.5238 49.049 49.5238 47.8761C49.5238 46.7032 48.5053 45.7522 47.2491 45.7522ZM50.2058 18.8113C50.6479 19.9085 50.0537 21.1333 48.8774 21.5471C48.6142 21.6394 48.3431 21.684 48.0766 21.684C47.1569 21.684 46.2905 21.1582 45.9473 20.3068L44.8793 17.6571H37.2187L36.1507 20.3068C35.7086 21.404 34.3924 21.9578 33.2206 21.5471C32.0443 21.1333 31.4501 19.9085 31.8922 18.8113L38.9197 1.37619C39.2541 0.547576 40.1015 0 41.049 0C41.9964 0 42.8439 0.547565 43.1782 1.37619L50.2058 18.8113ZM43.1671 13.4093L41.049 8.15445L38.9309 13.4093H43.1671Z" fill="white"/>
</svg>
