<svg width="50" height="50" viewBox="0 0 50 50" fill="none" xmlns="http://www.w3.org/2000/svg">
<path d="M18.0216 38.9514L13.0458 43.3668V1.91974C13.0458 1.41059 12.8169 0.922298 12.4094 0.562277C12.0019 0.202257 11.4493 0 10.873 0C10.2967 0 9.74406 0.202257 9.33658 0.562277C8.9291 0.922298 8.70017 1.41059 8.70017 1.91974V43.3668L3.72441 38.9514C3.31526 38.5899 2.76034 38.3869 2.18171 38.3869C1.60309 38.3869 1.04816 38.5899 0.639009 38.9514C0.229858 39.3129 0 39.8032 0 40.3144C0 40.8257 0.229858 41.316 0.639009 41.6775L9.33029 49.3564C9.53228 49.5363 9.7726 49.6792 10.0374 49.7766C10.3022 49.8741 10.5862 49.9243 10.873 49.9243C11.1598 49.9243 11.4438 49.8741 11.7086 49.7766C11.9734 49.6792 12.2137 49.5363 12.4157 49.3564L21.107 41.6775C21.3096 41.4985 21.4703 41.286 21.5799 41.0521C21.6896 40.8182 21.746 40.5676 21.746 40.3144C21.746 40.0613 21.6896 39.8107 21.5799 39.5768C21.4703 39.3429 21.3096 39.1304 21.107 38.9514C20.9044 38.7724 20.6639 38.6305 20.3992 38.5336C20.1345 38.4367 19.8508 38.3869 19.5643 38.3869C19.2778 38.3869 18.9941 38.4367 18.7294 38.5336C18.4647 38.6305 18.2242 38.7724 18.0216 38.9514Z" fill="white"/>
<path d="M38.0333 19.1974C37.457 19.1974 36.9044 19.3996 36.4969 19.7596C36.0894 20.1197 35.8605 20.6079 35.8605 21.1171C35.8605 21.6262 36.0894 22.1145 36.4969 22.4746C36.9044 22.8346 37.457 23.0368 38.0333 23.0368H46.7246C47.3008 23.0368 47.8535 22.8346 48.261 22.4746C48.6685 22.1145 48.8974 21.6262 48.8974 21.1171C48.8974 20.6079 48.6685 20.1197 48.261 19.7596C47.8535 19.3996 47.3008 19.1974 46.7246 19.1974H44.5518V3.83947C44.5518 2.82118 44.0939 1.8446 43.2789 1.12456C42.464 0.404514 41.3587 0 40.2061 0H38.0333C37.457 0 36.9044 0.202257 36.4969 0.562278C36.0894 0.922298 35.8605 1.41059 35.8605 1.91974C35.8605 2.42888 36.0894 2.91717 36.4969 3.27719C36.9044 3.63721 37.457 3.83947 38.0333 3.83947H40.2061V19.1974H38.0333Z" fill="white"/>
<path d="M41.2925 26.8763C38.9874 26.8763 36.7767 27.6854 35.1468 29.1255C33.5169 30.5655 32.6012 32.5187 32.6012 34.5553C32.6012 36.5919 33.5169 38.545 35.1468 39.9851C36.7767 41.4252 38.9874 42.2342 41.2925 42.2342C42.8242 42.2286 44.3258 41.8571 45.6381 41.1592V42.503C45.5876 43.3073 45.2519 44.0772 44.6788 44.7036C44.1057 45.3301 43.324 45.7814 42.4445 45.9937C41.565 46.2061 40.6322 46.1686 39.7782 45.8866C38.9241 45.6047 38.192 45.0926 37.6856 44.4227C37.5258 44.2135 37.3209 44.0341 37.0827 43.8948C36.8444 43.7555 36.5774 43.659 36.297 43.6109C36.0165 43.5628 35.7281 43.5639 35.4481 43.6143C35.1682 43.6646 34.9022 43.7632 34.6654 43.9044C34.4285 44.0456 34.2255 44.2266 34.0678 44.4371C33.9102 44.6476 33.801 44.8835 33.7465 45.1313C33.6921 45.3791 33.6934 45.6339 33.7504 45.8812C33.8073 46.1286 33.9189 46.3636 34.0787 46.5728C35.0817 47.9056 36.531 48.9281 38.224 49.4976C39.917 50.067 41.769 50.1548 43.5212 49.7487C45.2734 49.3427 46.8382 48.463 47.9969 47.2327C49.1556 46.0025 49.8503 44.4831 49.9838 42.8869C50.0054 42.6698 50.0054 42.4514 49.9838 42.2342V34.5553C49.9838 32.5187 49.0681 30.5655 47.4381 29.1255C45.8082 27.6854 43.5976 26.8763 41.2925 26.8763ZM41.2925 38.3948C40.433 38.3948 39.5928 38.1696 38.8782 37.7477C38.1635 37.3258 37.6065 36.7262 37.2776 36.0246C36.9487 35.323 36.8627 34.551 37.0303 33.8062C37.198 33.0615 37.6119 32.3773 38.2196 31.8404C38.8274 31.3034 39.6017 30.9377 40.4447 30.7896C41.2877 30.6414 42.1614 30.7175 42.9555 31.0081C43.7496 31.2987 44.4282 31.7908 44.9058 32.4222C45.3833 33.0536 45.6381 33.7959 45.6381 34.5553C45.6381 35.5736 45.1803 36.5502 44.3653 37.2702C43.5503 37.9902 42.445 38.3948 41.2925 38.3948Z" fill="white"/>
</svg>
